<?xml version="1.0" standalone="no"?>
<!DOCTYPE svg PUBLIC "-//W3C//DTD SVG 20010904//EN"
 "http://www.w3.org/TR/2001/REC-SVG-20010904/DTD/svg10.dtd">
<svg version="1.0" xmlns="http://www.w3.org/2000/svg"
 width="2048.000000pt" height="2048.000000pt" viewBox="0 0 2048.000000 2048.000000"
 preserveAspectRatio="xMidYMid meet">

<g transform="translate(0.000000,2048.000000) scale(0.100000,-0.100000)"
fill="#000000" stroke="none">
<path d="M13787 19729 c-10 -6 -58 -50 -105 -98 -48 -47 -143 -133 -212 -191
-69 -57 -136 -114 -150 -127 -14 -12 -47 -41 -75 -64 -27 -23 -68 -57 -90 -75
-49 -41 -306 -252 -320 -262 -5 -4 -28 -21 -50 -37 -47 -35 -138 -107 -145
-116 -3 -3 -23 -18 -45 -32 -22 -14 -65 -44 -95 -66 -75 -55 -370 -259 -398
-276 -10 -5 -73 -46 -142 -91 -69 -45 -187 -121 -263 -170 -75 -49 -164 -107
-198 -129 -33 -22 -90 -58 -125 -80 -85 -54 -98 -68 -90 -98 6 -25 32 -45 151
-115 104 -62 274 -177 400 -272 22 -16 56 -40 75 -53 51 -35 160 -122 370
-292 287 -235 745 -704 970 -995 19 -25 37 -47 41 -50 7 -6 100 -137 114 -162
6 -10 28 -43 49 -75 61 -91 101 -154 132 -208 16 -27 39 -66 52 -85 12 -19 48
-84 79 -145 30 -60 77 -154 104 -207 27 -53 49 -100 49 -105 0 -4 14 -42 31
-83 17 -41 42 -108 55 -148 33 -99 52 -134 71 -130 26 5 44 76 53 218 5 74 16
205 24 290 20 207 34 468 41 735 3 121 8 310 11 420 11 383 -21 1252 -61 1660
-8 77 -17 172 -20 210 -23 262 -69 671 -95 830 -10 66 -22 143 -25 170 -4 28
-19 120 -35 205 -15 85 -31 175 -34 200 -12 84 -25 110 -54 110 -15 0 -35 -5
-45 -11z"/>
<path d="M8480 16414 c-52 -25 -160 -72 -240 -104 -80 -32 -179 -73 -220 -92
-41 -19 -95 -43 -120 -53 -25 -10 -78 -33 -118 -52 -41 -18 -76 -33 -79 -33
-3 0 -19 -6 -36 -14 -80 -36 -162 -68 -282 -111 -71 -26 -144 -53 -162 -61
-17 -8 -34 -14 -38 -14 -3 0 -26 -9 -50 -20 -24 -11 -68 -26 -97 -35 -66 -18
-107 -33 -233 -85 -134 -55 -179 -72 -316 -115 -166 -52 -189 -79 -155 -186 8
-24 31 -105 51 -179 20 -74 47 -169 60 -210 12 -41 34 -118 49 -170 14 -52 51
-185 82 -295 79 -282 91 -328 120 -435 14 -52 49 -178 78 -280 30 -102 56
-194 59 -205 3 -11 22 -78 42 -150 20 -71 42 -155 50 -185 8 -30 23 -84 35
-120 23 -71 52 -177 80 -285 9 -38 51 -187 93 -331 42 -143 94 -334 116 -423
22 -90 45 -169 52 -177 39 -47 94 21 120 148 6 29 24 96 39 148 16 52 52 178
80 280 60 211 68 239 86 295 8 22 29 99 49 170 19 72 45 162 57 200 11 39 29
99 39 135 10 36 25 89 33 118 33 110 48 160 71 242 12 47 34 123 47 170 14 47
50 175 82 285 31 110 68 236 81 280 13 44 30 100 36 125 6 25 15 54 20 65 5
11 17 54 28 95 19 74 67 248 96 345 8 28 30 104 49 170 36 120 207 718 286
1000 5 17 15 48 24 70 28 75 17 125 -28 125 -12 -1 -64 -21 -116 -46z"/>
<path d="M10273 15920 c-30 -12 -53 -64 -103 -230 -73 -240 -199 -643 -265
-850 -24 -74 -45 -144 -48 -155 -3 -11 -15 -45 -26 -75 -12 -30 -28 -82 -36
-115 -9 -33 -34 -116 -56 -185 -22 -69 -58 -183 -80 -255 -23 -71 -66 -209
-96 -305 -30 -96 -72 -231 -94 -300 -21 -69 -63 -204 -93 -300 -31 -96 -66
-211 -80 -255 -14 -44 -53 -168 -87 -275 -34 -107 -77 -247 -96 -310 -40 -136
-105 -341 -135 -425 -11 -33 -29 -91 -40 -130 -10 -38 -38 -131 -62 -205 -24
-74 -60 -189 -81 -255 -20 -66 -54 -174 -76 -241 -43 -131 -47 -165 -24 -184
22 -18 214 -5 374 25 69 13 160 26 201 30 122 11 286 43 440 85 19 6 80 21
135 34 186 46 350 93 455 133 91 35 148 58 364 151 113 48 221 111 392 226
218 147 247 168 370 282 88 80 219 230 277 318 105 159 208 378 258 551 16 55
39 132 50 170 32 104 72 339 84 490 3 44 8 94 10 110 7 42 -12 361 -24 415 -5
25 -15 83 -20 130 -10 76 -51 246 -98 400 -49 164 -174 425 -273 570 -39 58
-82 121 -95 141 -13 21 -28 39 -32 40 -4 2 -41 43 -81 91 -73 87 -226 235
-292 282 -235 169 -397 246 -720 347 -129 40 -159 44 -197 29z"/>
<path d="M12940 10634 c-14 -9 -97 -88 -185 -175 -229 -225 -398 -379 -537
-489 -35 -27 -77 -63 -95 -80 -17 -16 -35 -30 -40 -30 -5 0 -22 -13 -39 -28
-32 -31 -267 -205 -320 -237 -18 -11 -79 -51 -136 -90 -56 -38 -110 -74 -119
-80 -46 -27 -185 -115 -195 -124 -6 -5 -31 -19 -55 -31 -24 -13 -73 -41 -109
-64 -99 -62 -100 -63 -170 -102 -221 -125 -318 -178 -425 -229 -66 -32 -221
-107 -345 -168 -124 -60 -252 -120 -285 -132 -33 -11 -75 -29 -94 -39 -18 -10
-61 -28 -95 -41 -33 -13 -88 -37 -121 -53 -33 -16 -78 -35 -100 -42 -22 -7
-57 -21 -79 -32 -52 -27 -319 -126 -381 -143 -27 -7 -63 -18 -80 -25 -16 -7
-43 -18 -60 -25 -16 -7 -41 -16 -55 -20 -87 -24 -292 -90 -327 -106 -40 -17
-43 -22 -43 -56 0 -21 9 -65 20 -98 39 -119 69 -222 132 -460 6 -22 19 -67 29
-100 10 -33 30 -100 43 -150 85 -318 111 -410 136 -495 49 -160 98 -331 120
-420 25 -98 33 -110 69 -110 23 1 359 213 445 282 16 12 44 32 62 43 51 31
152 103 233 164 41 31 100 74 132 96 32 22 68 49 81 60 13 11 41 32 63 47 65
45 385 310 462 383 17 16 73 68 124 115 51 47 130 122 176 167 46 45 91 88
101 95 16 13 127 128 287 298 166 176 386 431 460 531 16 23 163 213 208 269
76 96 242 328 281 393 11 18 49 76 85 130 195 292 327 510 436 722 29 55 98
190 155 300 139 267 166 324 175 363 8 37 7 37 -25 16z"/>
<path d="M4326 4963 c-8 -28 -46 -244 -46 -265 0 -16 11 -18 125 -18 73 0 125
-4 125 -10 0 -5 -13 -71 -30 -147 -16 -76 -43 -203 -59 -283 -121 -585 -301
-1445 -311 -1485 -5 -22 -35 -159 -65 -305 -31 -145 -59 -268 -61 -272 -3 -4
-66 -8 -140 -8 -74 0 -134 -1 -134 -3 0 -1 -11 -67 -25 -145 -14 -78 -25 -145
-25 -147 0 -3 300 -5 668 -5 746 0 794 4 997 65 499 151 874 516 1110 1080
126 300 183 598 172 895 -13 339 -106 576 -305 775 -111 112 -241 189 -402
239 -163 52 -228 56 -937 56 -612 0 -652 -1 -657 -17z m1354 -332 c119 -42
196 -101 271 -209 106 -151 151 -383 129 -661 -24 -310 -92 -559 -235 -857
-99 -207 -168 -310 -291 -430 -132 -131 -252 -203 -409 -249 -83 -24 -99 -25
-341 -25 -140 0 -254 3 -254 8 0 4 15 79 34 167 19 88 44 207 56 265 11 58 45
220 75 360 30 140 79 377 110 525 31 149 62 299 70 335 8 36 37 175 65 310 28
135 63 301 78 369 l26 123 276 -4 c254 -4 280 -6 340 -27z"/>
<path d="M7012 4848 c-12 -73 -22 -141 -22 -150 0 -16 13 -18 126 -18 l127 0
-6 -32 c-6 -33 -29 -145 -127 -603 -47 -221 -77 -363 -220 -1040 -35 -165 -53
-275 -57 -352 -25 -465 233 -758 725 -824 112 -15 393 -6 490 15 291 64 546
220 707 435 133 176 199 340 269 667 48 226 123 579 186 879 86 411 170 806
176 829 l6 26 137 0 138 0 22 128 c12 70 24 137 27 150 l4 22 -455 0 c-250 0
-455 -2 -455 -5 0 -2 -11 -69 -25 -147 -14 -78 -25 -144 -25 -145 0 -2 56 -3
125 -3 101 0 125 -3 125 -14 0 -8 -30 -155 -66 -328 -36 -172 -71 -344 -79
-383 -16 -80 -171 -820 -209 -1000 -49 -226 -106 -364 -201 -478 -71 -85 -122
-124 -260 -192 -140 -70 -236 -95 -369 -95 -216 0 -369 77 -433 217 -21 44
-26 76 -30 162 -6 113 3 186 42 371 25 118 85 402 175 825 29 132 67 312 85
400 59 282 107 500 112 508 2 4 64 7 138 7 l133 0 11 48 c12 55 41 221 41 240
0 9 -113 12 -533 12 l-533 0 -22 -132z"/>
<path d="M9872 4923 c-15 -77 -42 -228 -42 -236 0 -4 56 -7 125 -7 110 0 125
-2 125 -17 0 -14 -31 -164 -150 -718 -22 -102 -61 -293 -84 -405 -8 -41 -29
-140 -46 -220 -17 -80 -51 -244 -75 -365 -25 -121 -50 -238 -55 -260 -5 -22
-26 -119 -45 -215 -20 -96 -43 -205 -51 -242 l-16 -68 -137 0 -137 0 -23 -132
c-12 -73 -25 -141 -27 -150 -5 -17 21 -18 450 -18 l455 0 10 53 c13 63 41 229
41 240 0 4 -56 7 -125 7 -101 0 -125 3 -125 14 0 8 27 146 61 308 33 161 82
399 109 528 46 227 184 888 236 1135 14 65 27 121 29 124 7 6 11 -4 505 -1242
l465 -1167 150 3 150 2 11 55 c6 30 28 134 48 230 91 429 129 612 145 690 5
25 60 281 121 570 61 289 136 642 166 785 30 143 65 307 78 365 l23 105 230 3
231 2 22 -92 c20 -87 57 -251 275 -1227 l86 -385 -81 -385 c-45 -213 -84 -394
-86 -403 -5 -16 -23 -18 -195 -18 -128 0 -189 -3 -189 -11 0 -12 -37 -231 -45
-267 l-5 -22 637 2 637 3 22 130 c13 72 23 138 23 148 1 16 -14 17 -174 17
-147 0 -175 2 -175 15 0 8 15 90 34 182 116 566 115 563 149 619 17 29 74 122
126 206 52 84 163 266 246 403 84 138 195 320 247 405 52 85 147 241 211 345
64 105 136 223 161 263 l45 72 124 0 124 0 22 128 c12 70 24 137 27 150 l4 22
-408 0 -409 0 -22 -132 c-13 -73 -25 -141 -28 -150 -4 -16 4 -18 71 -18 42 0
76 -2 76 -5 0 -2 -37 -66 -82 -142 -84 -142 -162 -274 -271 -460 -35 -60 -91
-153 -124 -208 -33 -55 -99 -166 -147 -247 -48 -82 -91 -148 -95 -148 -5 0
-12 17 -16 38 -3 20 -19 91 -35 157 -15 66 -47 203 -70 305 -56 249 -83 367
-125 546 -19 83 -35 154 -35 157 0 4 38 7 84 7 72 0 85 3 90 18 6 19 46 258
46 273 0 5 -359 9 -905 9 -498 0 -905 -3 -905 -7 0 -5 -11 -71 -25 -147 -14
-77 -25 -141 -25 -143 0 -2 56 -3 125 -3 69 0 125 -3 125 -6 0 -26 -350 -1695
-359 -1712 -7 -13 -19 14 -214 508 -69 173 -169 425 -222 560 -140 354 -297
751 -338 855 l-35 90 -405 3 -404 2 -11 -57z"/>
<path d="M15732 4913 c-22 -38 -50 -88 -64 -113 -14 -25 -78 -139 -143 -255
-65 -115 -129 -230 -143 -255 -14 -25 -73 -130 -132 -235 -147 -262 -154 -274
-230 -410 -37 -66 -77 -138 -90 -160 -12 -22 -106 -188 -207 -370 -102 -181
-210 -373 -240 -425 -30 -52 -107 -189 -172 -305 l-117 -210 -124 -5 -123 -5
-18 -85 c-10 -47 -24 -113 -32 -147 l-15 -63 443 0 444 0 10 53 c13 66 41 227
41 238 0 5 -47 9 -104 9 -58 0 -107 3 -109 8 -3 4 77 153 177 332 l182 325
427 3 427 2 5 -22 c5 -28 74 -521 82 -595 l6 -53 -124 0 -125 0 -25 -142 c-14
-79 -24 -146 -22 -150 6 -11 1041 -10 1047 0 3 5 14 64 26 133 11 68 23 132
26 142 5 16 -5 17 -120 17 -69 0 -127 4 -130 8 -2 4 -14 75 -25 157 -20 149
-109 795 -156 1140 -14 99 -32 227 -40 285 -122 897 -156 1151 -161 1183 l-6
37 -153 0 -154 0 -39 -67z m-48 -1073 c15 -107 40 -295 57 -418 17 -123 29
-225 27 -227 -3 -3 -434 -7 -575 -5 -13 0 -23 4 -23 9 0 5 32 64 70 131 39 67
70 123 70 125 0 2 42 77 93 166 51 90 126 223 167 296 41 73 78 129 81 125 4
-4 19 -95 33 -202z"/>
</g>
</svg>
